<svg width="40" height="40" viewBox="0 0 40 40" fill="none" xmlns="http://www.w3.org/2000/svg">
<g clip-path="url(#clip0_265_2)">
<rect width="40" height="40" rx="20" fill="white"/>
<path d="M29.0445 11.8182C29.0444 10.7333 28.6156 9.69293 27.8531 8.92577C27.0905 8.1587 26.0562 7.72743 24.9778 7.72727C23.8992 7.72727 22.8639 8.15855 22.1012 8.92577L10.7525 20.5766C10.7468 20.5823 10.741 20.5882 10.7352 20.5939C10.0977 21.2249 9.59073 21.9767 9.24334 22.8058C8.89591 23.6352 8.71483 24.5265 8.71118 25.4265C8.70758 26.3264 8.88157 27.2179 9.22216 28.0499C9.56287 28.8822 10.0642 29.6387 10.6969 30.2751C11.3294 30.9114 12.0805 31.4159 12.9076 31.7586C13.7349 32.1014 14.622 32.2763 15.5167 32.2727C16.4113 32.269 17.2963 32.0867 18.1206 31.7373C18.9451 31.3878 19.6933 30.8768 20.3207 30.2352L31.6761 18.5777C32.2 18.0399 33.0582 18.031 33.593 18.5578C34.1277 19.0849 34.1368 19.9481 33.6128 20.486L22.2548 32.1461L22.2535 32.1488C21.375 33.047 20.3273 33.7609 19.173 34.2502C18.0189 34.7394 16.7798 34.9948 15.5273 34.9999C14.2748 35.005 13.0332 34.7606 11.875 34.2808C10.7169 33.801 9.66435 33.0943 8.7787 32.2034C7.89318 31.3125 7.19184 30.2536 6.71492 29.0886C6.23801 27.9236 5.99498 26.6745 6.00008 25.4145C6.00526 24.1547 6.25904 22.9081 6.74537 21.7471C7.23177 20.5861 7.9415 19.5333 8.8343 18.6496L20.1751 7.00683L20.1844 6.99751C21.4555 5.71883 23.1802 5 24.9778 5C26.7752 5.00016 28.4989 5.71897 29.7699 6.99751C31.0408 8.27613 31.7555 10.01 31.7556 11.8182C31.7556 13.6265 31.041 15.3615 29.7699 16.6402L29.7686 16.6388L18.3735 28.3376L18.3642 28.3482C17.6016 29.1152 16.5673 29.5466 15.4889 29.5467C14.4104 29.5467 13.3751 29.1154 12.6124 28.3482C11.8496 27.5809 11.421 26.5396 11.421 25.4545C11.421 24.374 11.8464 23.3377 12.6031 22.5714L24.0088 10.8634C24.5328 10.3256 25.391 10.3163 25.9256 10.8434C26.4603 11.3705 26.4682 12.2338 25.9442 12.7716L14.5385 24.4797L14.5292 24.4904C14.2751 24.7461 14.1321 25.0929 14.1321 25.4545C14.1321 25.8161 14.2752 26.1628 14.5292 26.4186C14.7835 26.6745 15.1293 26.8195 15.4889 26.8195C15.8034 26.8193 16.1069 26.7092 16.3481 26.5105L16.4474 26.4186L27.8438 14.7212L27.8531 14.7106C28.6155 13.9434 29.0445 12.903 29.0445 11.8182Z" fill="#1E1F1F"/>
</g>
<defs>
<clipPath id="clip0_265_2">
<rect width="40" height="40" fill="white"/>
</clipPath>
</defs>
</svg>
